<svg width="149" height="60" viewBox="0 0 149 60" fill="none" xmlns="http://www.w3.org/2000/svg">
<g clip-path="url(#clip0_28_4356)">
<path d="M31.9819 13.3206V6.66143C31.9819 5.92592 31.3853 5.32959 30.6493 5.32959H29.3168V1.33408C29.3168 0.598573 28.7202 0.002243 27.9843 0.002243C26.0977 0.002243 23.2087 -0.142261 19.8172 1.88846C17.709 1.26125 16.2179 1.33408 14.659 1.33408C13.923 1.33408 13.3264 1.93041 13.3264 2.66592V5.32959H11.9939C11.2579 5.32959 10.6614 5.92592 10.6614 6.66143V13.3206C10.6614 18.7447 14.7377 23.2348 19.9891 23.8922V41.2892C19.9891 42.0247 20.5856 42.621 21.3216 42.621C22.0576 42.621 22.6542 42.0247 22.6542 41.2892V36.6278H24.6529C28.6941 36.6278 31.9819 33.3417 31.9819 29.3027V27.3049C31.9819 26.5694 31.3853 25.9731 30.6493 25.9731H27.318C25.5478 25.9731 23.9222 26.6036 22.6542 27.6518V23.8916C27.8977 23.2426 31.9819 18.7747 31.9819 13.3206ZM29.3168 13.3206C29.3168 15.6909 28.268 17.8316 26.6104 19.2994C26.6366 19.0857 26.6517 18.8686 26.6517 18.648C26.6517 15.2752 25.3902 12.1918 23.3148 9.84277C25.0743 8.64279 27.1604 7.99327 29.3168 7.99327V13.3206ZM26.6517 2.66592V5.59829C26.4055 5.6484 26.161 5.70559 25.9184 5.76943C25.054 4.80227 24.0681 3.97828 22.9916 3.31244C24.1552 2.88725 25.3903 2.66592 26.6517 2.66592ZM15.9915 3.99776C18.6388 3.99776 21.2097 4.96392 23.2091 6.80993C22.5492 7.1503 21.9165 7.5471 21.3177 7.99701C19.7684 6.83282 17.9581 5.99793 15.9915 5.59737V3.99776ZM13.3264 13.3206V7.99327C19.2045 7.99327 23.9867 12.7729 23.9867 18.648C23.9867 20.1363 22.757 21.349 21.2516 21.3104C16.5702 21.1949 13.3264 17.4775 13.3264 13.3206ZM27.318 28.6367H29.3168V29.3027C29.3168 31.8729 27.2247 33.9641 24.6529 33.9641H22.6542V33.2982C22.6542 30.7279 24.7464 28.6367 27.318 28.6367Z" fill="white"/>
</g>
<path d="M47.7303 20.1589H42.1129V23.6902H48.7479V26.4378H38.541V11.6209H48.7683V14.3787H42.1129V17.5029H47.7303V20.1589ZM56.0032 16.5463L58.4252 11.6209H62.5059L58.3641 18.9683L62.6179 26.4378H58.4964L56.0032 21.4208L53.51 26.4378H49.3987L53.6423 18.9683L49.5106 11.6209H53.5812L56.0032 16.5463ZM67.6343 21.4106V26.4378H64.0624V11.6209H69.9749C71.1079 11.6209 72.1086 11.8312 72.977 12.2519C73.8521 12.6657 74.5272 13.2593 75.0021 14.0327C75.4837 14.7994 75.7246 15.6711 75.7246 16.6481C75.7246 18.0931 75.2056 19.2499 74.1676 20.1182C73.1364 20.9798 71.7185 21.4106 69.9138 21.4106H67.6343ZM67.6343 18.6528H69.9749C70.6669 18.6528 71.1927 18.4798 71.5523 18.1338C71.9186 17.7878 72.1018 17.2994 72.1018 16.6684C72.1018 15.9764 71.9152 15.4235 71.5421 15.0097C71.1689 14.5958 70.6601 14.3855 70.0156 14.3787H67.6343V18.6528ZM81.4839 23.6902H87.7017V26.4378H77.912V11.6209H81.4839V23.6902ZM101.378 19.3347C101.378 20.7797 101.11 22.0585 100.574 23.1712C100.038 24.2838 99.2752 25.142 98.2847 25.7458C97.3009 26.3428 96.1781 26.6413 94.9163 26.6413C93.6544 26.6413 92.535 26.353 91.558 25.7763C90.5811 25.1929 89.8179 24.3618 89.2684 23.2831C88.7256 22.2044 88.4407 20.9663 88.4135 19.5687V18.7342C88.4135 17.2824 88.6781 16.0036 89.2073 14.8977C89.7433 13.7851 90.5065 12.9269 91.497 12.3231C92.4943 11.7193 93.6273 11.4174 94.8959 11.4174C96.151 11.4174 97.2704 11.7159 98.2541 12.3129C99.2379 12.9099 100.001 13.7614 100.544 14.8672C101.093 15.9663 101.372 17.2281 101.378 18.6528V19.3347ZM97.7453 18.7139C97.7453 17.2417 97.4977 16.1257 97.0024 15.3658C96.514 14.5992 95.8118 14.2159 94.8959 14.2159C93.1049 14.2159 92.1585 15.5592 92.0567 18.2458L92.0465 19.3347C92.0465 20.7865 92.2874 21.9025 92.769 22.6827C93.2507 23.4629 93.9665 23.853 94.9163 23.853C95.8186 23.853 96.514 23.4697 97.0024 22.7031C97.4909 21.9364 97.7385 20.834 97.7453 19.3957V18.7139ZM109 21.2071H107.066V26.4378H103.494V11.6209H109.326C111.083 11.6209 112.457 12.011 113.447 12.7912C114.438 13.5714 114.933 14.6738 114.933 16.0985C114.933 17.1298 114.722 17.9846 114.302 18.663C113.888 19.3414 113.237 19.891 112.348 20.3116L115.442 26.2852V26.4378H111.615L109 21.2071ZM107.066 18.4493H109.326C110.004 18.4493 110.513 18.2729 110.852 17.9201C111.198 17.5606 111.371 17.0619 111.371 16.4242C111.371 15.7865 111.198 15.2878 110.852 14.9283C110.506 14.5619 109.997 14.3787 109.326 14.3787H107.066V18.4493ZM126.554 20.1589H120.936V23.6902H127.571V26.4378H117.364V11.6209H127.592V14.3787H120.936V17.5029H126.554V20.1589ZM42.347 43.4378H38.7852V28.6209H42.347V43.4378ZM57.4788 43.4378H53.9272L48.6762 34.218V43.4378H45.1042V28.6209H48.6762L53.917 37.8408V28.6209H57.4788V43.4378ZM60.0122 43.4378V28.6209H64.7849C66.0943 28.6209 67.2714 28.9194 68.3161 29.5164C69.3609 30.1067 70.175 30.9445 70.7585 32.03C71.3487 33.1087 71.6472 34.3197 71.654 35.663V36.3448C71.654 37.7017 71.3657 38.9195 70.789 39.9982C70.2191 41.0701 69.4118 41.9113 68.367 42.5219C67.329 43.1257 66.1689 43.431 64.8867 43.4378H60.0122ZM63.5841 31.3787V40.6902H64.8256C65.8501 40.6902 66.637 40.3272 67.1866 39.6013C67.7361 38.8686 68.0109 37.7831 68.0109 36.3448V35.7037C68.0109 34.2722 67.7361 33.1935 67.1866 32.4676C66.637 31.7417 65.8365 31.3787 64.7849 31.3787H63.5841ZM86.3075 36.3347C86.3075 37.7797 86.0396 39.0585 85.5036 40.1712C84.9676 41.2838 84.2044 42.142 83.2139 42.7458C82.2302 43.3428 81.1074 43.6413 79.8455 43.6413C78.5836 43.6413 77.4642 43.353 76.4873 42.7763C75.5103 42.1929 74.7471 41.3618 74.1976 40.2831C73.6548 39.2044 73.3699 37.9663 73.3428 36.5687V35.7342C73.3428 34.2824 73.6074 33.0036 74.1365 31.8977C74.6725 30.7851 75.4357 29.9269 76.4262 29.3231C77.4235 28.7193 78.5565 28.4174 79.8252 28.4174C81.0802 28.4174 82.1997 28.7159 83.1834 29.3129C84.1671 29.9099 84.9303 30.7614 85.4731 31.8672C86.0226 32.9663 86.3008 34.2281 86.3075 35.6528V36.3347ZM82.6746 35.7139C82.6746 34.2417 82.4269 33.1257 81.9317 32.3658C81.4432 31.5992 80.741 31.2159 79.8252 31.2159C78.0341 31.2159 77.0877 32.5592 76.9859 35.2458L76.9758 36.3347C76.9758 37.7865 77.2166 38.9025 77.6983 39.6827C78.18 40.4629 78.8957 40.853 79.8455 40.853C80.7478 40.853 81.4432 40.4697 81.9317 39.7031C82.4201 38.9364 82.6678 37.834 82.6746 36.3957V35.7139ZM100.798 43.4378H97.2467L91.9956 34.218V43.4378H88.4237V28.6209H91.9956L97.2365 37.8408V28.6209H100.798V43.4378ZM112.521 37.1589H106.904V40.6902H113.539V43.4378H103.332V28.6209H113.559V31.3787H106.904V34.5029H112.521V37.1589ZM122.911 39.4995C122.911 38.9771 122.724 38.5701 122.351 38.2784C121.985 37.9866 121.337 37.6847 120.407 37.3727C119.478 37.0606 118.718 36.7587 118.128 36.4669C116.208 35.5239 115.248 34.2281 115.248 32.5796C115.248 31.7587 115.485 31.0361 115.96 30.412C116.442 29.781 117.12 29.2926 117.995 28.9466C118.871 28.5938 119.854 28.4174 120.947 28.4174C122.012 28.4174 122.965 28.6074 123.806 28.9873C124.654 29.3672 125.312 29.9099 125.78 30.6155C126.248 31.3143 126.482 32.1148 126.482 33.0171H122.921C122.921 32.4133 122.734 31.9452 122.361 31.6128C121.995 31.2804 121.496 31.1141 120.865 31.1141C120.227 31.1141 119.722 31.2566 119.349 31.5416C118.982 31.8197 118.799 32.1759 118.799 32.6101C118.799 32.99 119.003 33.336 119.41 33.6481C119.817 33.9534 120.533 34.2722 121.557 34.6047C122.582 34.9303 123.423 35.2831 124.081 35.663C125.682 36.5857 126.482 37.8577 126.482 39.4792C126.482 40.775 125.994 41.7926 125.017 42.5321C124.04 43.2716 122.7 43.6413 120.997 43.6413C119.797 43.6413 118.708 43.4276 117.731 43.0002C116.761 42.566 116.028 41.9758 115.533 41.2295C115.044 40.4765 114.8 39.6115 114.8 38.6345H118.382C118.382 39.4283 118.586 40.0151 118.993 40.3951C119.406 40.7682 120.075 40.9548 120.997 40.9548C121.588 40.9548 122.052 40.8292 122.392 40.5782C122.738 40.3204 122.911 39.9609 122.911 39.4995ZM132.394 43.4378H128.833V28.6209H132.394V43.4378ZM143.751 40.6698H138.856L138.001 43.4378H134.185L139.619 28.6209H142.977L148.452 43.4378H144.616L143.751 40.6698ZM139.711 37.912H142.896L141.298 32.7729L139.711 37.912Z" fill="url(#paint0_linear_28_4356)"/>
<defs>
<linearGradient id="paint0_linear_28_4356" x1="93.1189" y1="24.5" x2="93.1189" y2="51.5" gradientUnits="userSpaceOnUse">
<stop stop-color="white"/>
<stop offset="1" stop-color="white" stop-opacity="0"/>
</linearGradient>
<clipPath id="clip0_28_4356">
<rect width="42.6432" height="42.621" fill="white"/>
</clipPath>
</defs>
</svg>
