<svg width="374" height="314" viewBox="0 0 374 314" fill="none" xmlns="http://www.w3.org/2000/svg">
<path fill-rule="evenodd" clip-rule="evenodd" d="M118.455 -413.671C126.199 -422.84 122.044 -444.094 121.043 -454.082C119.065 -473.833 115.967 -493.153 113.107 -512.539C110.247 -531.924 107.333 -551.308 105.813 -571.213C104.824 -584.135 103.372 -598.977 107.171 -612.995C115.272 -642.866 144.241 -612.763 152.84 -606.252C174.719 -589.694 198.19 -568.791 227.196 -563.259C244.512 -559.957 258.627 -567.117 269.906 -585.456C273.581 -591.414 276.348 -599.515 282.743 -602.925C289.572 -606.568 297.243 -605.497 303.181 -604.104C324.83 -599.014 342.921 -585.168 359.694 -572.572C377.797 -559.01 394.889 -543.932 412.034 -529.489C419.304 -523.365 429.784 -520.364 439.051 -517.287C451.199 -513.253 463.623 -509.761 475.963 -506.105C503.095 -498.042 531.221 -489.933 553.967 -474.397C568.212 -464.668 580.897 -450.646 580.789 -429.954C580.735 -419.564 575.746 -408.295 571.89 -397.793C567.24 -385.1 562.369 -372.435 558.079 -359.698C544.263 -318.674 536.272 -273.898 563.337 -248.283C567.432 -244.409 572.272 -241.565 576.657 -238.073C579.448 -235.846 581.129 -232.922 578.949 -228.312C573.485 -216.743 552.867 -208.682 543.243 -204.002C522.176 -193.76 500.817 -185.029 479.624 -175.458C465.607 -169.13 444.626 -162.035 433.59 -149.246C423.757 -137.852 428.266 -119.733 429.755 -108.734C431.154 -98.4312 435.544 -81.9449 427.042 -70.6403C422.919 -65.1592 416.636 -63.0551 411.061 -62.0167C401.301 -60.2101 392.285 -60.7481 382.301 -57.7076C365.923 -52.7162 347.193 -42.613 335.564 -27.0064C327.507 -16.1919 326.229 -5.70756 326.41 5.50709C326.485 10.2214 326.785 13.7667 323.184 18.2535C317.469 25.3809 309.142 30.9849 301.955 35.9865C276.235 53.8883 248.606 68.8515 221.264 81.5082C207.6 87.8338 193.577 93.7991 179.65 97.2622C170.515 99.5457 158.981 101.701 152.623 96.2778C145.254 90.0088 140.44 79.8668 135.509 71.1498C126.301 54.8657 117.905 37.9541 109.687 20.9405C90.6858 -18.4112 72.8981 -58.6088 56.3234 -99.6524C44.6645 -128.581 32.5727 -157.906 25.2638 -189.397C23.8554 -195.559 23.07 -202.014 22.9183 -208.676C22.6974 -215.724 19.7365 -221.313 16.3275 -226.501C-4.83049 -258.704 -41.072 -278.63 -72.7321 -298.725C-80.7665 -303.827 -88.8055 -308.925 -96.6039 -314.345C-103.308 -319.005 -112.194 -323.573 -115.992 -331.298C-123.479 -346.514 -97.0264 -356.614 -86.089 -360.594C-47.58 -374.61 -8.14904 -380.641 30.2353 -388.39C48.5008 -392.092 66.808 -395.708 85.1342 -400.448C94.6686 -402.906 111.666 -405.633 118.455 -413.671Z" stroke="#5BE7C3" stroke-width="2"/>
<path fill-rule="evenodd" clip-rule="evenodd" d="M125.081 -410.691C128.582 -424.385 126.37 -438.591 125.209 -451.177C123.541 -469.292 121.104 -487.134 119.045 -505.109C117.099 -522.106 115.218 -539.222 115.003 -556.827C114.871 -567.563 114.398 -580.671 119.607 -591.953C130.894 -616.41 158.052 -588.14 165.826 -582.418C185.147 -568.186 206.068 -550.894 231.786 -546.948C247.846 -544.485 261.338 -551.577 271.816 -568.446C275.442 -574.282 277.801 -579.89 283.952 -583.532C291.069 -587.748 298.941 -587.455 305.49 -586.402C326.009 -583.109 343.486 -571.249 359.388 -560.225C375.815 -548.837 392.501 -536.465 406.231 -522.893C411.723 -517.468 420.584 -514.207 428.005 -511.172C439.428 -506.508 451.144 -502.37 462.704 -497.957C486.201 -488.991 509.968 -479.392 529.349 -464.113C543.342 -453.082 555.147 -438.308 557.406 -418.101C559.689 -397.616 550.576 -376.624 543.431 -355.377C531.067 -318.653 517.511 -272.747 537.921 -245.403C541.015 -241.255 545.113 -238.591 548.767 -235.11C550.648 -233.322 552.6 -231.065 551.418 -227.647C548.349 -218.775 530.867 -212.651 524.13 -209.586C505.513 -201.115 486.66 -194.035 467.957 -186.107C453.105 -179.813 435.741 -173.552 422.536 -162.347C406.511 -148.751 413.848 -123.135 410.328 -106.957C404.223 -78.9048 375.355 -84.5198 357.909 -83.5098C337.877 -82.3524 312.37 -70.8508 308.38 -46.0886C306.855 -36.6188 308.351 -28.9294 303.109 -19.338C294.911 -4.33793 280.516 8.52759 267.648 19.3026C248.298 35.4945 227.237 49.8779 205.712 61.0785C190.298 69.0947 165.674 81.2788 154.786 69.5317C147.45 61.6324 142.149 51.0649 136.852 41.2027C128.918 26.4382 121.687 11.1507 114.693 -4.28859C98.5184 -39.8937 83.7473 -76.5463 70.6878 -114.15C61.7802 -139.811 48.5101 -225.001 46.0685 -229.714C38.7852 -243.765 25.4144 -253.756 13.3082 -262.838C-2.79476 -274.92 -20.0903 -285.444 -37.2218 -296.136C-45.3716 -301.232 -53.7595 -306.121 -61.4876 -311.79C-66.9875 -315.826 -74.0657 -321.296 -75.2253 -329.131C-77.4915 -344.421 -52.5311 -353.76 -42.065 -357.791C-9.9882 -370.157 22.7799 -376.621 54.9421 -384.372C70.7292 -388.18 86.614 -391.878 102.412 -397.06C108.788 -399.155 122.92 -402.23 125.081 -410.691Z" stroke="#5ACEF2" stroke-width="2"/>
<path fill-rule="evenodd" clip-rule="evenodd" d="M135.841 -410.087C139.397 -440.428 133.825 -469.984 132.198 -499.233C131.384 -513.917 130.709 -528.862 132.276 -544.194C133.089 -552.167 134.173 -562.203 139.467 -569.779C153.631 -590.042 178.251 -564.729 186.871 -558.623C203.54 -546.823 221.936 -532.979 244.131 -530.588C257.695 -529.13 270.09 -535.13 279.217 -549.112C283.267 -555.315 286.204 -561.013 292.7 -564.961C299.28 -568.961 306.464 -569.622 312.86 -569.259C331.244 -568.22 347.44 -559.111 361.742 -550.423C378.505 -540.213 394.161 -528.477 408.582 -515.308C421.219 -503.781 438.487 -497.826 454.041 -490.351C474.644 -480.447 495.077 -469.722 511.814 -454.478C525.03 -442.436 535.647 -427.123 539.045 -407.541C542.478 -387.621 537.029 -366.812 529.887 -345.43C519.09 -313.108 503.713 -270.568 517.188 -243.341C519.145 -239.378 521.901 -236.781 524.893 -233.837C526.346 -232.407 528.316 -230.672 527.272 -227.888C524.758 -221.188 509.468 -217.057 504.614 -215.214C489.118 -209.329 473.535 -204.377 458.012 -198.767C443.52 -193.53 428.144 -188.306 414.368 -179.441C392.433 -165.319 401.375 -138.544 385.443 -120.86C375.55 -109.882 360.516 -108.763 349.298 -108.685C335.493 -108.598 320.185 -113.842 305.543 -104.708C294.636 -97.9056 294.678 -88.5115 292.244 -78.379C288.121 -61.2106 274.703 -44.5982 262.259 -31.2517C245.444 -13.2147 225.913 2.98915 205.567 15.4075C196.345 21.0378 186.277 26.4908 176.473 28.6175C167.287 30.6124 161.935 28.5722 157.119 22.4678C142.382 3.77463 132.904 -21.4487 123.423 -44.8414C111.512 -74.2342 100.885 -104.538 92.202 -135.849C86.2817 -157.2 80.5131 -179.369 79.3738 -202.879C79.0776 -209.008 78.9562 -215.497 80.4444 -221.982C81.5527 -226.865 83.1768 -230.294 81.8404 -234.757C77.8773 -247.984 64.327 -256.934 54.3636 -264.385C38.4358 -276.303 21.243 -286.587 4.28352 -297.105C-5.62066 -303.233 -25.7093 -313.095 -24.1572 -329.11C-22.8146 -342.937 -2.92381 -351.538 7.31018 -356.019C33.1936 -367.347 59.7624 -374.012 85.8844 -381.926C97.8561 -385.553 110.082 -389.069 121.918 -394.355C124.938 -395.701 129.241 -397.228 131.887 -399.732C134.912 -402.608 135.397 -406.353 135.841 -410.087Z" stroke="#5BE7C3" stroke-width="2"/>
<path fill-rule="evenodd" clip-rule="evenodd" d="M133.118 -404.637C135.748 -431.901 133.336 -458.189 134.153 -485.101C134.52 -497.167 135.129 -509.634 138.206 -522.117C139.859 -528.83 142.405 -536.886 148.035 -542.189C164.194 -557.411 184.925 -537.159 194.659 -530.575C209.11 -520.774 225.536 -509.31 244.935 -508.428C257.642 -507.849 267.97 -514.172 276.158 -526.694C284.939 -540.126 295.859 -546.01 309.423 -546.132C326.424 -546.278 341.721 -539.219 355.177 -532.003C371.377 -523.294 386.356 -512.8 399.933 -500.647C413.136 -488.827 428.745 -480.689 443.799 -471.225C463.757 -458.676 483.177 -444.339 496.269 -424.125C507.667 -406.525 512.889 -384.665 509.955 -360.226C506.9 -334.711 494.776 -309.606 488.213 -284.088C484.118 -268.172 479.095 -246.784 485.613 -233.698C487.787 -229.334 495.685 -226.008 486.851 -221.15C481.799 -218.371 475.818 -217.251 470.658 -215.857C462.32 -213.602 453.986 -211.601 445.648 -209.475C427.877 -204.94 409.327 -200.65 391.792 -192.296C369.709 -181.783 369.912 -159.061 353.869 -143.001C345.237 -134.357 334.05 -131.113 323.93 -129.698C317.38 -128.778 310.942 -128.631 304.614 -128.768C298.005 -128.91 291.324 -130.418 284.422 -129.204C274.592 -127.482 270.808 -118.765 265.284 -110.428C255.58 -95.7753 244.447 -81.9755 232.138 -69.3419C217.053 -53.8547 200.079 -39.1659 181.904 -28.8918C174.83 -24.8904 166.89 -21.0229 159.569 -20.5332C152.248 -20.0434 148.332 -23.8348 144.74 -28.9133C134.076 -43.9629 127.354 -63.5901 120.945 -82.2247C112.925 -105.55 106.181 -129.73 101.402 -154.776C98.1046 -172.065 95.3467 -190.059 96.2996 -208.887C96.5786 -214.365 97.1806 -219.972 98.5975 -225.6C99.5673 -229.46 101.832 -233.581 101.625 -237.279C100.964 -248.835 87.1245 -257.325 79.6712 -263.026C64.7971 -274.406 47.7875 -282.82 32.8341 -294.069C24.6722 -300.208 11.5131 -309.379 13.2292 -322.95C14.8403 -335.71 30.6807 -344.489 40.6051 -349.662C60.1157 -359.834 80.3489 -366.472 100.215 -374.457C108.387 -377.745 117.092 -381.054 124.883 -386.119C131.82 -390.636 132.442 -397.648 133.118 -404.637Z" stroke="#5ACEF2" stroke-width="2"/>
<path fill-rule="evenodd" clip-rule="evenodd" d="M135.814 -401.861C139.13 -425 139.056 -448.108 142.512 -471.551C144.538 -485.277 147.716 -508.548 162.796 -517.502C179.359 -527.347 196.238 -513.64 206.761 -506.617C219.285 -498.259 234.21 -488.698 251.334 -489.076C256.749 -489.194 262.462 -490.587 267.641 -494.419C273.184 -498.52 275.687 -504.103 279.873 -509.367C288.654 -520.41 300.851 -524.898 312.321 -525.347C328.535 -525.984 343.272 -520.271 356.358 -513.896C371.172 -506.659 384.845 -497.672 397.183 -487.064C408.981 -476.935 420.994 -467.312 433.19 -457.626C449.148 -444.969 464.139 -430.733 474.559 -412.507C484.82 -394.549 489.754 -373.056 487.779 -349.295C485.849 -326.111 477.837 -302.581 468.682 -279.46C463.484 -266.337 456.392 -246.153 460.274 -233.989C461.999 -228.578 465.735 -225.67 456.769 -223.04C445.479 -219.729 433.739 -219.352 422.594 -217.787C406.513 -215.525 390.072 -213.257 373.824 -208.126C363.448 -204.849 355.69 -199.704 348.259 -190.355C342.601 -183.23 337.833 -175.472 331.382 -168.976C316.241 -153.729 296.977 -150.828 279.497 -147.736C268.253 -145.749 258.844 -144.942 247.881 -137.836C234.921 -129.438 223.076 -118.384 210.869 -108.603C197.463 -97.8629 183.233 -86.9326 168.2 -80.2162C154.817 -74.2359 145.121 -74.6974 138.67 -84.8644C128.604 -100.718 124 -122.596 120.071 -142.556C116.067 -162.868 113.314 -184.218 114.551 -206.404C115.22 -218.383 118.722 -230.138 120.469 -242.132C122.652 -257.2 105.529 -265.356 96.5262 -271.582C81.5811 -281.918 29.4656 -308.455 61.9121 -338.495C75.4551 -351.033 92.9862 -358.324 108.271 -366.553C114.612 -369.97 122.714 -373.652 128.147 -379.126C134.065 -385.088 134.812 -394.899 135.814 -401.861Z" stroke="#FF8062" stroke-width="2"/>
<path fill-rule="evenodd" clip-rule="evenodd" d="M25.0774 113.035C-2.58382 112.206 -30.4366 107.251 -57.3807 103.376C-96.7543 97.7123 -136.136 91.2927 -173.307 80.4036C-193.235 74.5637 -219.857 67.937 -231.058 49.7025C-235.153 43.0362 -235.571 33.0568 -237.565 25.1067C-240.314 14.1444 -243.377 3.34209 -246.42 -7.46051C-252.528 -29.1231 -258.763 -50.7276 -264.106 -72.795C-266.677 -83.4223 -267.968 -95.1501 -271.428 -105.294C-273.448 -111.223 -279.325 -114.253 -283.836 -117.824C-294.287 -126.094 -305.005 -134.037 -315.638 -142.081C-328.642 -151.921 -341.712 -161.741 -353.889 -172.582C-359.38 -177.473 -374.209 -187.829 -371.88 -196.813C-370.624 -201.649 -361.46 -204.502 -357.216 -205.819C-349.42 -208.242 -341.569 -209.723 -333.81 -211.199C-315.864 -214.612 -297.817 -217.048 -279.763 -222.554C-270.483 -225.387 -258.794 -228.548 -254.169 -239.256C-249.495 -250.071 -247.724 -261.37 -243.225 -272.283C-238.05 -284.842 -230.663 -296.209 -223.296 -307.928C-217.852 -316.59 -214.641 -325.637 -211.039 -334.828C-207.056 -344.986 -203.114 -355.292 -197.941 -365.176C-194.524 -371.706 -188.148 -383.257 -180.86 -383.032C-170.503 -382.716 -162.337 -368.891 -156.544 -361.46C-148.536 -351.195 -141.066 -340.441 -133.249 -330.003C-127.577 -322.423 -122.013 -314.668 -115.022 -308.4C-103.754 -298.295 -91.3054 -289.501 -78.9865 -280.693C-56.1761 -264.383 -32.9743 -248.842 -11.6196 -230.676C7.08948 -214.76 26.0377 -149.431 31.8817 -135.795C43.5453 -108.576 56.1903 -81.4213 63.9476 -51.8083C66.0437 -43.7941 69.9053 -32.2072 66.2968 -22.4521C64.0753 -16.4394 61.0488 -14.4452 62.4949 -8.1228C64.4677 0.502796 70.0421 7.9725 74.4872 14.8625C81.6465 25.9579 89.259 36.672 96.6962 47.5308C111.75 69.4794 126.079 92.0098 140.654 114.358C145.06 121.114 151.858 127.563 154.858 135.414C156.799 140.468 154.309 142.634 148.955 143.25C139.563 144.333 130.188 141.395 121.829 139.459C109.581 136.621 97.5971 133.19 85.6569 129.7C73.7166 126.21 61.8339 122.562 49.8828 119.076C41.9951 116.765 33.7111 113.295 25.0774 113.035Z" stroke="#FF8062" stroke-width="2"/>
<path fill-rule="evenodd" clip-rule="evenodd" d="M13.9992 98.6174C-14.636 97.0057 -42.9035 91.0808 -70.2581 85.4911C-105.274 78.3454 -140.129 69.9164 -172.234 56.758C-191.082 49.0288 -213.01 39.5444 -223.38 21.1991C-227.08 14.6539 -227.327 6.8058 -228.609 -1.02568C-230.065 -9.95768 -232.041 -18.6881 -234.072 -27.3545C-238.253 -45.1935 -242.793 -62.8506 -247.692 -80.3258C-250.273 -89.5982 -252.281 -100.784 -257.931 -108.045C-262.421 -113.82 -270.014 -117.451 -275.9 -121.635C-286.498 -129.17 -297.118 -136.677 -307.63 -144.323C-319.758 -153.147 -331.863 -162.064 -343.161 -171.914C-349.457 -177.404 -361.467 -185.418 -361.353 -194.669C-361.252 -202.741 -332.399 -207.699 -327.119 -208.813C-310.632 -212.289 -294.152 -214.934 -277.61 -219.576C-267.845 -222.306 -255.963 -225.621 -246.924 -232.558C-239.222 -238.472 -235.202 -249.257 -231.281 -257.444C-226.365 -267.697 -220.762 -277.894 -216.354 -288.275C-212.426 -297.523 -210.528 -307.123 -208.073 -316.481C-205.373 -326.774 -202.615 -337.225 -198.445 -347.413C-195.872 -353.676 -191.531 -364.137 -184.379 -366.109C-176.126 -368.376 -167.811 -355.233 -163.815 -350.51C-155.727 -340.907 -148.366 -330.598 -140.787 -320.528C-128.198 -303.804 -115.962 -288.134 -99.4978 -275.388C-78.0545 -258.793 -55.5329 -243.506 -33.8484 -227.202C-25.8364 -221.186 -17.3037 -215.537 -10.1095 -208.548C-5.98656 -204.539 -4.15669 -199.947 -4.99414 -193.813C-6.13447 -185.439 -0.69261 -175.637 2.22154 -167.796C6.76778 -155.573 11.7113 -143.597 16.5807 -131.582C27.2663 -105.202 38.6302 -78.8705 45.8205 -50.3921C48.0966 -41.3836 50.8074 -31.1915 49.3059 -20.7843C48.4702 -14.9794 44.7724 -11.8484 42.8073 -6.59495C40.235 0.326152 44.5302 8.09093 46.8399 13.0355C51.2945 22.5821 56.9853 31.2812 62.7379 39.7892C75.7555 59.039 90.1956 76.6986 105.571 93.7376C109.178 97.7259 123.598 113.179 107.619 114.944C89.9622 116.896 72.4571 110.323 56.8121 106.579C42.7265 103.195 28.928 99.4581 13.9992 98.6174Z" stroke="#5BE7C3" stroke-width="2"/>
<path fill-rule="evenodd" clip-rule="evenodd" d="M-7.98264 75.711C-34.2227 73.4015 -59.7182 66.643 -84.3905 59.9374C-114.33 51.8001 -143.876 42.1147 -170.576 28.0554C-187.346 19.2204 -204.939 8.42708 -214.479 -8.7146C-220.996 -20.4191 -220.168 -36.3715 -222.906 -50.1604C-225.644 -63.9493 -229.069 -77.6198 -233.639 -90.4734C-236.475 -98.4506 -239.713 -106.811 -246.287 -111.669C-262.27 -123.484 -279.45 -133.853 -295.587 -145.518C-306.269 -153.228 -316.85 -161.096 -326.715 -169.827C-332.665 -175.091 -341.384 -181.682 -343.169 -190.436C-345.14 -200.114 -279.896 -212.938 -273.122 -214.864C-256.135 -219.697 -234.46 -226.849 -222.37 -243.987C-210.813 -260.371 -207.141 -276.819 -203.775 -294.497C-201.852 -304.545 -198.77 -333.138 -186.703 -338.069C-179.807 -340.889 -172.69 -331.828 -168.897 -328.009C-161.42 -320.483 -154.65 -312.216 -147.714 -304.14C-137.592 -292.375 -127.996 -279.341 -116.972 -268.534C-109.294 -261.011 -100.423 -254.792 -92.2276 -247.848C-80.4782 -237.889 -68.8466 -227.792 -57.2332 -217.674C-47.4826 -209.177 -37.4497 -200.845 -28.6943 -191.248C-23.2446 -185.289 -20.0788 -179.626 -19.8438 -171.033C-19.6379 -163.558 -16.0012 -156.19 -13.4376 -149.368C-9.20163 -138.102 -4.58404 -127.071 -0.0493758 -115.996C9.44308 -92.8071 19.2861 -69.6366 26.1899 -44.8757C29.3437 -33.5752 35.8424 -15.9814 27.2678 -2.38145C24.1765 2.52286 23.0312 4.80363 24.1534 10.0418C25.7467 17.4759 29.8956 23.7462 33.8733 29.5128C43.146 42.9563 55.9185 52.9907 65.2028 66.3797C68.9703 71.8482 72.9368 80.1074 61.8408 81.8521C48.8785 83.9053 35.8581 80.0187 24.0749 78.0752C18.1939 77.1033 12.3225 75.8824 6.19816 75.5942C1.48879 75.3802 -3.33996 76.1345 -7.98264 75.711Z" stroke="#5ACEF2" stroke-width="2"/>
<path fill-rule="evenodd" clip-rule="evenodd" d="M-35.8909 45.721C-59.0306 42.2908 -81.2813 35.1805 -102.663 27.6455C-126.404 19.2674 -149.575 9.34415 -170.214 -4.04787C-184.469 -13.2895 -198.561 -24.4259 -206.656 -40.1439C-211.775 -50.0851 -211.316 -61.4436 -213.23 -72.9253C-216.109 -90.2665 -221.352 -106.526 -235.057 -115.314C-250.419 -125.17 -265.43 -135.53 -280.091 -146.394C-288.934 -152.946 -297.69 -159.667 -305.731 -167.184C-310.817 -171.934 -317.286 -178.151 -319.201 -185.233C-321.76 -194.713 -271.181 -207.261 -264.298 -209.506C-247.227 -215.071 -231.578 -222.837 -216.229 -234.668C-203.706 -244.323 -200.934 -257.93 -198.705 -271.226C-197.325 -279.485 -196.198 -302.255 -186.838 -306.543C-181.686 -308.917 -175.869 -303.618 -172.482 -301.082C-166.028 -296.246 -160.207 -290.613 -154.223 -285.223C-145.397 -277.255 -134.2 -270.891 -126.48 -261.779C-109.366 -241.587 -91.931 -221.877 -73.8199 -202.609C-63.835 -191.989 -53.6881 -181.424 -44.7765 -169.742C-41.5775 -165.548 -38.2924 -161.194 -36.217 -156.096C-34.8802 -152.819 -35.3744 -149.595 -34.8313 -146.141C-32.23 -129.689 -23.2769 -114.747 -16.9365 -100.227C-8.5068 -80.9246 0.0927359 -61.6666 7.05304 -41.4146C10.7137 -30.7623 16.7484 -16.9675 14.2344 -3.72131C13.4752 0.280939 10.9857 1.88164 9.74553 5.29531C8.31238 9.23049 10.9283 12.9929 12.3986 15.6796C15.7339 21.7797 34.0003 42.2523 15.0142 45.2411C5.96295 46.658 -2.72369 45.1177 -11.3915 44.9095C-14.5304 44.8349 -17.6296 44.8077 -20.907 45.5219C-26.3961 46.7246 -30.6022 46.4969 -35.8909 45.721Z" stroke="#F1B170" stroke-width="2"/>
<path fill-rule="evenodd" clip-rule="evenodd" d="M-65.44 13.5468C-108.263 3.41555 -152.081 -15.9437 -182.905 -45.6368C-193.154 -55.5136 -202.887 -67.6603 -205.736 -83.3157C-207.41 -92.5548 -207.475 -101.433 -212.725 -108.722C-216.516 -113.984 -222.821 -117.035 -228.059 -120.654C-235.645 -125.894 -243.172 -131.212 -250.603 -136.655C-259.807 -143.414 -268.919 -150.338 -277.392 -157.987C-283.446 -163.454 -292.199 -170.542 -293.85 -179.532C-295.826 -190.261 -258.483 -200.938 -252.444 -203.363C-237.806 -209.241 -225.121 -216.21 -212.802 -227.822C-209.208 -231.201 -204.548 -233.834 -201.528 -237.753C-198.449 -241.758 -197.333 -246.707 -196.419 -251.139C-195.217 -256.943 -194.745 -272.735 -188.483 -275.733C-185.024 -277.388 -180.272 -273.925 -177.476 -272.521C-172.226 -269.894 -167.332 -266.72 -162.242 -263.851C-153.6 -258.991 -142.235 -257.438 -134.91 -250.977C-115.206 -233.608 -101.875 -208.162 -86.0954 -186.992C-76.7219 -174.398 -67.0584 -161.984 -58.6343 -148.56C-55.9698 -144.312 -53.23 -139.931 -51.4263 -135.036C-50.1673 -131.62 -50.6778 -127.875 -49.7353 -124.448C-46.1292 -111.298 -39.2802 -99.3525 -33.4138 -87.5761C-25.8068 -72.2777 -18.0278 -57.0995 -10.7851 -41.5409C-6.24493 -31.7892 0.773533 -20.6372 1.79915 -8.84106C2.54904 -0.226441 -1.83194 -1.56719 -7.97153 0.639508C-11.1039 1.76315 -12.655 4.17687 -15.3204 6.19892C-19.1259 9.08553 -23.5157 9.76017 -27.5478 10.2931C-33.1136 11.034 -39.154 10.4057 -44.8081 12.3082C-46.8 12.9768 -48.2092 14.7112 -49.8935 15.3381C-54.7972 17.1663 -61.4126 14.4994 -65.44 13.5468Z" stroke="#FF8062" stroke-width="2"/>
<path fill-rule="evenodd" clip-rule="evenodd" d="M-92.546 -18.8821C-124.928 -29.8953 -156.525 -47.3603 -179.972 -71.6757C-188.129 -80.1369 -195.346 -89.8133 -199.81 -101.379C-201.847 -106.634 -202.743 -111.324 -206.775 -114.966C-216.134 -123.415 -226.605 -130.616 -236.404 -138.543C-243.417 -144.215 -250.372 -150.025 -256.604 -156.582C-260.772 -160.965 -266.473 -166.817 -267.073 -173.716C-267.935 -183.753 -242.481 -193.727 -236.164 -197.092C-225.691 -202.674 -214.445 -209.218 -207.487 -220.067C-205.36 -223.385 -203.839 -226.622 -201.352 -229.735C-199.223 -232.417 -196.927 -234.612 -195.508 -237.701C-193.746 -241.528 -193.521 -249.601 -189.777 -251.318C-187.221 -252.492 -184.466 -250.305 -182.155 -249.411C-178.408 -247.96 -174.461 -246.883 -170.356 -246.189C-166.026 -245.467 -161.325 -246.044 -157.146 -244.936C-150.366 -243.132 -144.783 -238.755 -139.721 -234.432C-119.528 -217.179 -103.519 -194.487 -88.4845 -172.209C-80.6546 -160.609 -72.9293 -148.771 -66.648 -135.936C-64.7416 -132.038 -62.4357 -127.79 -61.8459 -123.085C-61.4749 -120.153 -61.9662 -117.291 -61.0489 -114.543C-53.2091 -91.0683 -37.6365 -71.5799 -26.499 -49.9684C-23.6002 -44.3429 -6.77208 -14.064 -27.1008 -16.3415C-39.4518 -17.7238 -49.7912 -22.3711 -63.1123 -21.2214C-67.1665 -20.876 -70.1711 -20.2909 -73.8813 -17.6568C-76.3449 -15.8986 -74.0289 -15.883 -77.9039 -15.1506C-82.5826 -14.288 -88.773 -17.5995 -92.546 -18.8821Z" stroke="#F1B170" stroke-width="2"/>
<path fill-rule="evenodd" clip-rule="evenodd" d="M-112.907 -45.9784C-147.925 -62.2731 -178.273 -87.448 -201.175 -118.894C-206.95 -126.819 -214.862 -132.83 -221.835 -139.528C-228.615 -146.029 -242.067 -155.946 -241.092 -167.603C-240.386 -176.055 -226.811 -183.743 -220.402 -188.416C-212.237 -194.369 -204.089 -200.763 -200.859 -210.543C-198.968 -216.271 -197.891 -222.339 -196.16 -228.134C-195.334 -230.903 -194.535 -235.543 -192.151 -236.803C-188.214 -238.878 -181.192 -235.189 -177.069 -234.24C-163.893 -231.207 -153.183 -224.182 -143.439 -215.834C-125.439 -200.416 -110.064 -181.723 -96.1129 -162.243C-89.695 -153.28 -83.2791 -144.085 -78.4273 -133.868C-75.6808 -128.088 -75.6806 -121.443 -73.379 -115.546C-65.9727 -96.5531 -54.6324 -80.1239 -46.4547 -61.5611C-44.0888 -56.1872 -34.5769 -36.9068 -48.6616 -35.6958C-62.2971 -34.5245 -72.2431 -44.5033 -85.7968 -44.0191C-87.3386 -43.9551 -89.2186 -43.9081 -90.8165 -43.0435C-91.7685 -42.5235 -92.4972 -40.6122 -93.0955 -40.3645C-99.4949 -37.5865 -108.463 -43.9087 -112.907 -45.9784Z" stroke="#5ACEF2" stroke-width="2"/>
</svg>
