<svg width="375" height="276" viewBox="0 0 375 276" fill="none" xmlns="http://www.w3.org/2000/svg">
<path fill-rule="evenodd" clip-rule="evenodd" d="M228.131 359.92C228.084 346.854 209.318 332.162 201.302 324.587C185.452 309.605 168.967 295.77 152.634 281.714C136.302 267.658 119.926 253.64 104.352 238.208C94.2404 228.191 82.3588 216.909 75.5008 202.605C60.8913 172.123 106.954 176.649 118.886 175.982C149.239 174.279 184.055 175.056 212.507 159.183C229.492 149.707 236.265 133.814 232.617 110.651C231.441 103.118 227.96 94.4501 230.909 87.1115C234.057 79.2738 241.3 74.751 247.311 71.718C269.237 60.6682 294.447 59.388 317.646 58.001C342.661 56.4769 367.912 56.9227 392.751 56.8046C403.284 56.7551 414.283 51.8512 424.313 47.8657C437.462 42.6418 450.454 36.774 463.494 31.1005C492.181 18.6485 521.741 5.53357 552.092 2.37104C571.099 0.3897 591.873 3.06833 606.638 20.3022C614.052 28.9553 617.932 41.8188 622.218 53.2458C627.406 67.0504 632.389 80.9884 637.912 94.5758C655.705 138.337 681.109 181.1 722.342 183.249C728.58 183.572 734.706 182.517 740.914 182.319C744.868 182.197 748.386 183.435 749.856 188.796C753.551 202.243 741.937 223.47 737.175 234.139C726.748 257.492 714.99 279.797 703.976 302.682C696.688 317.816 684.075 338.498 683.943 356.887C683.825 373.271 700.639 385.113 709.793 393.183C718.371 400.739 733.912 411.313 734.853 426.683C735.308 434.136 731.516 440.313 727.557 445.106C720.616 453.488 712.621 459.402 706.377 468.966C696.139 484.657 687.585 506.246 688.975 527.389C689.939 542.039 696.389 551.633 704.593 560.805C708.041 564.661 710.839 567.389 711.022 573.649C711.316 583.59 708.311 594.11 705.836 603.327C696.982 636.313 684.407 668.209 670.418 697.99C663.428 712.873 655.876 727.71 646.607 740.406C640.537 748.743 632.351 758.665 623.091 758.653C612.371 758.653 601.027 753.639 590.606 749.89C571.143 742.883 551.916 734.782 532.765 726.472C488.476 707.245 444.603 686.461 401.147 664.12C370.537 648.357 339.278 632.571 310.5 611.615C304.887 607.499 299.59 602.701 294.679 597.284C289.432 591.596 282.921 589.05 276.319 587.153C235.342 575.375 190.449 584.417 149.301 590.087C138.857 591.523 128.413 592.967 117.939 593.973C108.935 594.838 98.1559 597.319 89.4049 593.592C72.1615 586.257 87.2355 559.224 93.6084 548.208C116.046 509.423 144.995 476.609 171.827 443.109C184.584 427.156 197.439 411.244 209.503 394.387C215.785 385.624 228.172 371.373 228.131 359.92Z" stroke="#5BE7C3" stroke-width="2"/>
<path fill-rule="evenodd" clip-rule="evenodd" d="M235.863 357.713C228.986 343.888 216.919 333.669 206.903 324.052C192.49 310.208 177.623 297.133 162.98 283.681C149.134 270.961 135.259 258.095 122.437 243.649C114.618 234.84 104.808 224.305 101.104 211.276C93.071 183.036 136.288 187.32 146.957 186.581C173.481 184.753 203.553 184.334 228.092 169.466C243.414 160.18 249.709 144.782 246.441 123.405C245.311 116.008 243.276 109.694 245.853 102.336C248.832 93.8195 255.686 88.5103 261.969 84.7627C281.651 73.0208 304.916 70.5262 326.251 68.4505C348.292 66.3063 371.257 64.7942 392.589 66.3634C401.12 66.988 410.939 63.4422 419.381 60.7229C432.371 56.5334 445.229 51.7003 458.154 47.2062C484.422 38.0656 511.373 29.2602 538.7 28.2585C558.429 27.5349 578.999 31.4577 595.413 46.6197C612.047 61.9949 619.428 85.8291 628.652 108.486C644.584 147.658 666.101 195.284 702.959 203.56C708.548 204.817 713.919 204.135 719.503 204.444C722.374 204.6 725.642 205.095 727.098 208.763C730.878 218.284 720.52 235.693 717.035 242.987C707.404 263.142 696.576 282.31 686.484 302.077C678.468 317.772 668.308 335.212 665.207 353.817C661.445 376.394 686.028 392.458 694.673 408.355C709.66 435.922 681.265 451.629 667.266 464.772C651.191 479.862 637.921 507.39 652.332 530.737C657.845 539.664 664.628 544.985 667.09 556.635C670.94 574.855 668.028 595.677 664.904 613.688C660.198 640.763 652.75 667.545 642.625 692.015C635.371 709.535 623.337 737.006 605.714 734.946C593.851 733.571 581.791 728.547 570.239 724.106C552.943 717.46 535.864 709.885 518.876 702.017C479.663 683.903 440.881 663.931 402.861 641.963C376.92 626.968 304.557 565.692 299.113 563.506C282.878 556.993 264.42 558.14 247.682 559.149C225.418 560.489 203.265 563.963 181.13 567.181C170.593 568.705 160.003 570.567 149.411 571.317C141.871 571.85 131.97 572.308 125.366 566.629C112.476 555.55 126.837 530.2 132.776 519.475C150.97 486.595 173.984 458.122 195.564 429.009C206.153 414.716 216.905 400.445 226.518 385.005C230.395 378.77 240.114 366.252 235.863 357.713Z" stroke="#5ACEF2" stroke-width="2"/>
<path fill-rule="evenodd" clip-rule="evenodd" d="M245.378 350.627C226.595 322.961 200.672 302.385 178.299 279.279C167.07 267.679 155.77 255.762 146.085 241.945C141.047 234.76 134.756 225.674 133.785 215.658C131.191 188.865 170.143 192.488 181.802 191.471C204.343 189.497 229.807 188 250.257 174.327C262.751 165.969 268.904 152.25 266.568 134.219C265.533 126.219 263.921 119.423 266.568 111.567C269.251 103.609 274.839 97.9932 280.498 93.7836C296.759 81.6765 316.968 77.8059 335.276 74.9219C356.754 71.5629 378.393 70.2514 400.019 70.998C418.96 71.6418 437.81 64.3997 456.303 59.6262C480.803 53.306 505.747 47.7858 530.817 48.6201C550.617 49.283 570.572 54.4908 587.498 68.3312C604.698 82.427 615.039 103.525 624.362 126.291C638.456 160.708 656.021 206.827 686.941 219.898C691.438 221.803 695.629 222.013 700.267 222.344C702.52 222.504 705.429 222.554 706.546 225.598C709.235 232.927 699.296 247.137 696.523 252.09C687.67 267.9 678.073 282.998 669 298.598C660.529 313.163 651.303 328.34 646.041 345.407C637.668 372.589 664.438 388.483 663.688 414.385C663.221 430.466 651.335 441.997 641.924 449.975C630.336 459.785 613.651 466.234 607.851 484.136C603.53 497.47 610.31 505.23 615.53 515.349C624.377 532.492 624.98 555.731 624.059 575.575C622.818 602.392 617.968 629.604 609.713 654.252C605.972 665.426 601.389 677.049 594.642 685.728C588.322 693.861 582.34 695.945 573.893 694.28C548.034 689.175 521.926 674.946 497.129 662.237C465.974 646.267 435.248 628.636 405.44 608.799C385.113 595.271 364.328 580.958 346.488 562.268C341.838 557.396 337.076 552.1 333.676 545.673C331.106 540.843 330.014 536.854 325.682 534.096C312.841 525.924 294.98 528.061 281.221 528.911C259.221 530.263 237.328 533.863 215.463 537.105C202.705 539.01 178.67 545.003 168.482 530.629C159.688 518.217 170.299 497.055 175.72 486.121C189.431 458.47 207.069 434.203 223.434 409.215C230.934 397.764 238.728 386.224 244.922 373.492C246.504 370.246 249.039 365.945 249.475 362.002C249.963 357.484 247.683 354.036 245.378 350.627Z" stroke="#5BE7C3" stroke-width="2"/>
<path fill-rule="evenodd" clip-rule="evenodd" d="M246.992 357.063C229.637 332.601 208.728 312.505 190.096 289.614C181.742 279.35 173.306 268.584 166.94 256.063C163.516 249.33 159.881 240.855 160.825 232.486C163.534 208.467 195.571 210.636 208.514 209.229C227.746 207.163 249.84 205.081 266.845 192.13C277.985 183.647 282.162 171.118 280.082 154.961C277.849 137.629 282.841 125.047 294.201 115.378C308.445 103.266 326.423 98.3285 342.961 94.8209C362.885 90.6151 383.062 88.7508 403.245 89.2507C422.874 89.7387 441.892 85.4762 461.391 82.7045C487.245 79.0329 513.928 77.2219 539.49 84.748C561.746 91.3019 581.849 105.744 596.918 128.078C612.658 151.388 620.451 180.757 633.232 206.545C641.203 222.63 652.32 243.909 667.216 250.161C672.184 252.247 681.238 249.433 677.27 259.693C675.002 265.56 670.757 270.707 667.404 275.504C661.986 283.255 656.388 290.792 650.878 298.436C639.136 314.731 626.56 331.373 617.759 350.669C606.669 374.963 623.154 393.66 621.145 418.293C620.065 431.549 612.953 442.129 605.428 450.441C600.56 455.824 595.233 460.487 589.794 464.837C584.114 469.382 577.392 472.843 572.438 478.719C565.379 487.08 568.444 496.977 569.768 507.786C572.097 526.781 572.609 546.076 571.291 565.234C569.679 588.716 565.899 612.869 557.937 634.208C554.839 642.515 550.915 651.322 545.088 656.893C539.261 662.463 533.233 662.082 526.556 660.404C506.75 655.448 486.986 643.915 468.198 632.984C444.683 619.3 421.63 604.008 399.615 586.611C384.419 574.602 369.173 561.627 356.46 545.344C352.762 540.605 349.244 535.53 346.4 529.865C344.446 525.98 343.399 520.966 340.569 518.046C331.715 508.93 313.939 511.652 303.556 512.182C282.832 513.238 262.435 518.259 241.739 519.479C230.443 520.146 212.752 521.824 204.457 509.36C196.656 497.644 203.722 479.191 208.384 467.902C217.547 445.705 229.858 425.929 240.891 405.296C245.427 396.805 250.399 387.922 253.337 378.226C255.949 369.587 251.44 363.334 246.992 357.063Z" stroke="#5ACEF2" stroke-width="2"/>
<path fill-rule="evenodd" clip-rule="evenodd" d="M251.261 357.465C237.447 335.94 220.793 316.832 206.879 294.956C198.735 282.145 184.709 260.608 191.007 242.547C197.917 222.7 222.004 222.16 235.927 220.561C252.498 218.657 271.959 216.057 286.14 203.665C290.626 199.747 294.447 194.562 296.066 187.732C297.8 180.422 295.904 174.026 295.657 166.709C295.14 151.359 302.212 139.035 311.57 130.572C324.797 118.606 341.336 112.949 356.957 109.005C374.656 104.556 392.648 102.363 410.677 102.456C427.907 102.532 444.954 102.038 462.201 101.466C484.757 100.705 507.629 101.935 529.509 109.697C551.062 117.35 570.658 131.691 586.05 152.786C601.066 173.372 611.198 198.533 620.071 224.162C625.106 238.709 633.612 260.448 645.622 267.796C650.962 271.066 656.203 270.842 650.524 279.347C643.373 290.056 633.736 298.649 625.453 307.809C613.505 321.027 601.258 334.504 591.229 350.22C584.824 360.256 581.971 369.994 582.411 382.988C582.752 392.887 584.298 402.682 583.517 412.619C581.685 435.941 567.51 451.935 554.977 466.828C546.915 476.407 539.552 483.713 535.402 497.339C530.493 513.443 528.433 530.963 525.153 547.684C521.549 566.046 517.388 585.146 509.522 601.319C502.521 615.717 494.006 622.174 481.262 618.295C461.384 612.249 441.791 597.356 424.144 583.578C406.183 569.56 388.53 553.798 373.646 534.531C365.61 524.126 360.126 511.909 352.989 500.731C344.013 486.698 323.706 492.013 311.638 493.2C291.604 495.173 228.567 509.929 234.384 462.134C236.812 442.185 246.373 423.774 253.365 406.17C256.263 398.864 260.458 390.096 261.113 381.724C261.827 372.606 255.414 363.945 251.261 357.465Z" stroke="#FF8062" stroke-width="2"/>
<path fill-rule="evenodd" clip-rule="evenodd" d="M258.555 359.289C247.998 339.782 235.364 321.354 226.306 300.286C220.43 286.642 214.66 268.411 222.24 253.975C230.795 237.683 249.661 233.885 263.523 231.809C277.805 229.672 294.855 227.874 306.528 215.522C310.241 211.587 313.303 206.281 313.873 199.927C314.422 193.832 312.871 187.738 313.385 181.533C314.537 167.599 321.056 156.118 329.462 147.792C354.327 123.158 391.336 117.681 421.336 117.037C436.353 116.717 451.807 118.397 466.921 119.6C486.532 121.162 506.174 124.514 524.877 132.593C564.644 149.765 591.299 187.848 609.915 235.238C615.773 250.154 620.257 266.293 629.438 278.28C634.171 284.47 633.137 288.916 628.298 294.561C620.733 303.383 611.504 310.125 603.107 317.488C591.164 327.959 578.965 338.586 568.402 351.13C561.122 359.776 555.954 368.107 554.385 381.073C553.265 390.318 553.527 399.738 552.854 409.04C551.573 426.71 547.186 444.247 539.421 458.905C533.251 470.523 525.906 481.081 518.314 491.149C508.445 504.256 500.098 517.573 492.603 533.129C482.666 553.721 468.704 591.706 445.299 581.653C419.485 570.561 395.29 542.378 378.728 515.07C373.166 505.902 368.601 494.657 361.1 487.896C349.87 477.79 338.476 478.145 325.12 478.187C305.123 478.244 261.61 483.87 261.14 445.047C260.955 429.666 266.091 415.123 268.55 400.328C271.323 383.759 265.765 372.583 258.555 359.289Z" stroke="#F1B170" stroke-width="2"/>
<path fill-rule="evenodd" clip-rule="evenodd" d="M266.417 361.03C255.976 335.607 232.561 293.831 250.369 265.561C259.777 250.621 276.415 245.006 290.373 241.66C301.606 238.954 315.152 237.938 323.639 226.465C329.877 218.03 327.108 205.754 329.498 195.195C332.464 182.105 339.272 171.393 347.639 163.343C371.018 140.843 403.525 133.938 431.65 132.468C460.859 130.946 493.043 138.068 520.529 151.767C554.8 168.854 580.475 201.209 598.431 242.182C601.744 249.745 604.755 257.506 607.935 265.161C610.072 270.296 613.241 275.264 614.926 280.665C617.73 289.671 614.426 297.033 609.129 302.902C601.509 311.352 592.149 317.367 583.462 323.708C571.583 332.387 559.439 340.91 548.389 351.092C540.963 357.943 533.19 365.324 530.533 377.212C528.719 385.319 528.343 393.907 528.407 402.304C528.548 420.308 527.819 434.868 521.334 451.357C510.663 478.429 494.254 502.771 476.918 523.025C463.313 538.921 441.786 563.613 421.963 552.986C404.178 543.47 393.774 520.692 382.057 502.276C376.36 493.323 369.96 485.147 362.44 478.779C352.96 470.751 344.035 467.382 332.802 466.069C313.897 463.858 285.39 463.283 279.546 433.897C277.388 423.053 278.62 411.82 277.488 400.834C276.01 386.309 271.685 373.854 266.417 361.03Z" stroke="#5BE7C3" stroke-width="2"/>
<path fill-rule="evenodd" clip-rule="evenodd" d="M277.275 361.972C269.839 334.154 260.071 299.096 278.03 274.372C286.729 262.395 298.965 255.7 310.807 250.696C319.288 247.11 332.755 246.055 337.955 235.031C341.774 226.918 342.303 215.726 345.758 207.034C350.505 195.083 357.697 185.24 366.134 177.535C388.115 157.457 416.744 149.698 442.852 147.476C499.581 142.656 557.303 181.048 587.659 244.214C596.71 263.043 608.394 283.083 593.767 302.32C577.797 323.305 553.739 333.137 534.679 348.048C527.396 353.741 518.115 360.585 514.052 370.893C511.608 377.089 511.441 384.863 511.329 391.684C511.035 409.057 509.922 424.681 504.531 440.891C496.205 465.943 482.929 489.055 467.885 507.986C454.765 524.494 436.054 543.894 416.999 531.993C402.39 522.848 393.124 503.436 381.772 489.127C369.14 473.191 353.517 462.452 336.36 457.205C319.67 452.114 301.365 448.68 292.569 427.051C289.552 419.631 286.4 410.025 285.269 401.813C283.443 388.273 280.769 374.949 277.275 361.972V361.972Z" stroke="#FF8062" stroke-width="2"/>
<path fill-rule="evenodd" clip-rule="evenodd" d="M289.382 362.165C285.942 334.075 285.559 304.785 301.542 282.646C309.001 272.317 318.43 264.979 327.964 258.331C334.979 253.439 342.224 249.313 347.463 241.293C352.317 233.868 356.007 225.246 360.693 217.626C366.875 207.528 374.272 198.787 382.6 191.738C403.474 174.102 428.868 165.854 453.162 162.993C464.922 161.602 477.679 160.878 489.36 164.669C500.641 168.326 511.796 174.11 522.169 180.853C544.219 195.175 563.33 216.148 577.183 242.665C586.683 260.853 591.819 278.539 579.518 296.99C565.649 317.788 543.905 329.263 525.982 342.762C513.689 352.02 499.912 361.095 497.616 380.769C495.787 396.424 494.302 411.282 489.572 426.08C482.531 447.907 472.179 467.679 459.13 484.223C447.196 499.295 432.099 512.084 415.029 504.034C401.505 497.645 391.011 483.331 379.195 473.098C366.027 461.668 351.558 455.367 336.323 450.299C322.631 445.728 309.739 438.702 300.889 423.786C299.078 420.739 297.176 417.42 295.779 414.01C293.997 409.659 294.136 405.347 293.786 400.47C292.874 387.6 290.937 374.879 289.382 362.165Z" stroke="#F1B170" stroke-width="2"/>
<path fill-rule="evenodd" clip-rule="evenodd" d="M302.73 359.871C303.024 333.19 307.976 307.974 321.538 287.18C327.336 278.285 334.26 270.958 340.64 262.807C345.776 256.236 350.631 250.13 356.538 244.716C370.55 231.894 381.937 215.302 396.828 203.884C416.705 188.62 439.474 180.183 462.067 176.81C473.099 175.161 484.496 174.585 495.657 176.447C505.243 178.046 514.423 183.659 522.94 189.402C539.632 200.652 555.839 216.641 566.677 236.87C590.571 281.468 543.461 313.892 519.281 332.881C508.161 341.615 491.169 351.732 486.614 369.034C483.358 381.394 481.375 393.964 477.181 405.942C465.917 438.111 443.051 475.947 412.579 470.91C399.54 468.757 387.656 460.015 375.484 454.146C362.95 448.101 350.014 444.732 336.987 441.034C324.812 437.581 315.108 432.665 307.244 419.489C303.485 413.196 303.818 405.663 303.482 397.944C302.936 385.263 302.598 372.51 302.73 359.871Z" stroke="#5BE7C3" stroke-width="2"/>
<path fill-rule="evenodd" clip-rule="evenodd" d="M314.885 356.452C319.781 316.179 337.962 272.211 364.696 248.823C396.143 221.31 430.211 198.142 467.783 191.482C485.202 188.394 504.284 186.874 520.721 196.973C533.23 204.654 547.761 216.135 554.645 232.281C571.488 271.774 534.025 303.212 512.681 321.483C501.189 331.319 486.562 340.904 477.9 355.268C472.876 363.596 470.31 374.612 466.253 383.759C453.959 411.477 433.721 433.834 408.511 437.833C396.855 439.679 385.113 437.395 373.546 435.578C361.704 433.72 349.715 432.711 337.948 430.118C328.554 428.046 317.483 424.539 314.023 411.512C309.66 395.095 312.888 372.899 314.885 356.452Z" stroke="#5ACEF2" stroke-width="2"/>
<path fill-rule="evenodd" clip-rule="evenodd" d="M326.805 349.984C333.944 312.12 349.063 275.186 374.479 252.582C387.957 240.596 403.603 232.322 418.625 224.147C435.652 214.882 453.442 207.69 471.613 204.123C494.236 199.679 530.877 195.674 542.697 229.078C554.428 262.235 524.783 291.581 507.252 308.305C496.012 319.018 483.983 328.851 473.244 340.562C467.421 346.912 462.935 354.248 458.008 361.695C444.388 382.329 424.972 398.663 405.182 407.383C386.001 415.837 362.273 419.579 342.027 416.786C333.291 415.585 327.046 411.534 324.404 400.016C320.743 384.006 323.854 365.625 326.805 349.984Z" stroke="#F1B170" stroke-width="2"/>
<path fill-rule="evenodd" clip-rule="evenodd" d="M338.649 339.785C345.741 306.448 361.04 275.998 383.354 255.99C408.368 233.56 440.578 221.096 470.182 214.758C485.918 211.392 520.018 202.264 528.039 228.387C536.06 254.51 512.873 280.253 499.527 294.424C483.33 311.598 465.867 328.179 448.425 343.588C433.27 356.986 417.1 370.683 400.685 381.029C391.428 386.898 381.784 391.69 371.868 395.348C364.526 398.035 355.189 402.043 347.492 400.043C328.076 394.991 335.256 355.726 338.649 339.785Z" stroke="#FF8062" stroke-width="2"/>
<path fill-rule="evenodd" clip-rule="evenodd" d="M353.268 329.802C368.83 266.756 418.136 235.749 465.609 224.942C476.641 222.433 507.565 213.388 513.731 232.647C519.707 251.319 500.703 273.464 491.806 283.956C464.238 316.466 430.177 340.571 397.902 364.452C387.828 371.906 369.658 388.081 357.162 380.62C343.593 372.503 350.044 342.875 353.268 329.802Z" stroke="#5ACEF2" stroke-width="2"/>
<path fill-rule="evenodd" clip-rule="evenodd" d="M369.209 317.666C382.743 271.238 422.106 244.61 458.297 235.832C467.161 233.684 489.674 226.996 496.388 239.952C502.601 251.937 487.774 269.304 482.227 276.204C469.878 291.571 455.242 304.23 440.783 316.398C427.415 327.656 413.902 339.195 399.835 348.716C392.426 353.728 378.53 364.422 370.11 356.683C361.046 348.358 366.204 327.976 369.209 317.666Z" stroke="#5ACEF2" stroke-width="2"/>
<path fill-rule="evenodd" clip-rule="evenodd" d="M-65.9387 395.642C-66.3115 365.898 -78.508 334.985 -72.4846 304.678C-67.5385 279.786 -42.6378 277.708 -27.6997 266.431C-15.829 257.471 -9.09237 241.6 -2.67272 226.372C3.09528 212.701 8.27621 198.618 14.3524 185.172C18.2858 176.478 25.0401 159.408 33.5703 159.1C41.7365 158.803 49.2246 172.105 53.9682 179.969C60.153 190.218 65.6363 201.146 71.642 211.559C81.7632 229.124 93.9068 242.125 107.812 254.43C123.635 268.431 139.72 281.954 156.066 294.999C168.101 304.632 180.218 314.193 191.787 324.778C199.043 331.419 215.058 343.88 215.132 356.124C215.167 361.966 210.896 368.437 208.016 373.107C203.144 381.012 197.59 388.24 192.019 395.311C181.642 408.484 170.825 421.059 160.126 433.787C146.239 450.305 132.974 466.553 120.765 485.305C108.143 504.716 96.0849 524.767 83.7798 544.543C75.4463 557.94 67.1216 572.985 55.1012 581.206C40.0457 591.483 27.6878 580.647 12.462 580.521C-0.635572 580.411 0.330169 541.072 -1.33419 530.133C-3.00441 519.061 -6.68537 508.754 -8.11196 497.656C-9.89079 483.802 -9.91428 469.628 -10.3517 455.626C-10.883 438.499 -11.0943 422.193 -25.2164 415.662C-33.2534 411.951 -41.9479 411.171 -50.2668 408.948C-55.6561 407.506 -65.8213 405.04 -65.9387 395.642Z" stroke="#FF8062" stroke-width="2"/>
<path fill-rule="evenodd" clip-rule="evenodd" d="M-59.4996 390.353C-60.8725 365.42 -68.9834 333.507 -61.3134 307.77C-54.7606 285.776 -34.2671 282.925 -20.4676 271.371C-9.07583 261.842 -4.00465 246.247 1.68978 230.928C6.25826 218.639 10.6886 206.231 15.8744 194.334C19.6962 185.567 25.5317 170.766 33.478 168.952C40.6218 167.32 48.283 180.387 52.2929 187.035C58.1431 196.74 63.1467 207.279 68.3149 217.598C77.396 235.723 86.6946 252.022 99.9855 265.337C113.335 278.709 127.94 288.707 142.701 299.113C154.249 307.255 165.738 315.634 176.709 325.034C184.882 332.032 196.632 340.99 200.371 353.47C203.332 363.342 188.318 379.726 183.891 385.508C174.777 397.397 165.12 408.558 155.445 419.65C143.651 433.167 131.48 444.988 121.064 460.406C102.434 487.973 86.8622 522.303 62.8909 542.791C48.4329 555.149 32.3433 558.309 16.2625 556.46C9.89482 555.728 8.36611 544.076 7.56354 537.279C6.22887 525.989 6.06129 514.504 5.03529 503.167C4.07397 492.555 1.93967 482.473 0.219872 472.067C-1.5205 461.523 -2.00851 450.721 -3.29027 440.105C-4.08402 433.514 -4.86895 425.845 -8.34088 420.546C-11.9333 415.061 -17.86 412.763 -23.04 411.017C-32.7678 407.769 -58.5294 407.948 -59.4996 390.353Z" stroke="#5BE7C3" stroke-width="2"/>
<path fill-rule="evenodd" clip-rule="evenodd" d="M-51.2122 379.915C-53.5211 357.028 -56.7536 328.523 -47.3473 307.437C-39.6588 290.196 -23.2612 286.476 -11.549 275.242C-1.80745 265.9 1.8721 251.042 6.70757 237.235C10.6754 225.91 14.6637 214.535 19.4727 203.758C23.1199 195.585 27.8201 184.503 35.0615 181.652C41.253 179.215 48.2473 190.129 51.6798 195.562C57.5241 204.82 62.289 215.194 67.0215 225.43C74.763 242.18 81.8868 260.072 92.9048 273.697C103.611 286.918 116.329 294.722 129.286 303.497C139.209 310.219 149.072 317.201 158.422 325.218C165.602 331.37 174.499 338.66 178.24 348.897C181.476 357.725 173.17 368.175 169.019 374.402C162.166 384.681 154.56 394.11 147.06 403.578C138.965 413.792 130 423.214 122.168 433.679C105.696 455.701 92.5372 480.084 72.2364 496.956C59.0889 507.885 41.3971 517.813 25.8553 516.028C14.6784 514.741 15.4138 482.68 14.3402 472.436C12.5754 455.686 9.16648 438.087 3.75158 422.658C-0.898594 409.437 -11.949 405.36 -22.1141 402.394C-28.4819 400.533 -35.1557 399.528 -41.3148 396.65C-48.4444 393.315 -50.2445 389.508 -51.2122 379.915Z" stroke="#5ACEF2" stroke-width="2"/>
<path fill-rule="evenodd" clip-rule="evenodd" d="M-43.482 369.188C-44.8567 349.838 -44.5476 326.957 -35.6427 310.219C-27.8388 295.558 -13.9441 291.698 -4.06185 280.149C3.65085 271.139 6.68 256.447 10.8278 244.531C15.897 229.962 23.0003 203.053 35.7881 197.57C47.6839 192.473 60.1243 225.033 64.4311 234.742C71.2488 250.109 76.951 266.962 85.22 281.153C92.341 293.371 101.882 300.125 112.008 307.383C124.92 316.653 144.522 327.645 151.426 345.711C156.571 359.173 139.839 379.187 134.125 388.514C128.149 398.258 123.648 409.807 117.481 419.207C107.749 434.04 91.9789 445.983 78.9586 455.096C66.3004 463.961 49.8623 473.774 35.5025 473.189C26.0648 472.808 24.2691 453.916 22.2555 444.688C19.3706 431.57 15.5349 419.814 7.29525 410.892C-1.09158 401.809 -10.9768 397.529 -21.3683 393.783C-26.7025 391.874 -32.7872 390.385 -37.5591 386.529C-42.8314 382.333 -42.9521 376.625 -43.482 369.188Z" stroke="#F1B170" stroke-width="2"/>
<path fill-rule="evenodd" clip-rule="evenodd" d="M-34.0631 358.034C-33.9869 341.317 -31.038 323.492 -22.2939 310.597C-15.0112 299.857 -3.61166 296.266 3.36008 285.287C8.88231 276.594 11.6933 264.391 15.3904 254.296C19.9121 241.926 26.3058 220.316 37.5498 216.023C48.5238 211.844 58.2303 235.646 62.438 245.064C68.5999 258.874 73.5881 273.513 79.8057 287.285C84.6765 298.09 90.633 305.054 98.5643 312.018C107.875 320.198 120.864 329.259 125.838 342.792C129.424 352.59 120.744 368.246 117.593 376.878C115.48 382.676 113.546 388.565 112.484 394.848C111.657 399.742 111.575 404.271 109.177 408.472C103.142 419.042 89.9083 420.421 80.9295 423.905C69.0048 428.529 56.3524 433.783 43.8731 434.786C36.203 435.413 32.2887 426.253 27.9108 419.809C22.7378 412.192 15.4139 406.713 9.01728 400.965C0.57549 393.367 -8.6116 388.641 -18.1156 383.8C-22.4025 381.616 -27.4376 379.473 -30.7592 375.131C-34.2275 370.628 -34.0896 364.067 -34.0631 358.034Z" stroke="#FF8062" stroke-width="2"/>
<path fill-rule="evenodd" clip-rule="evenodd" d="M-24.1707 348.109C-22.6551 334.069 -17.932 320.651 -9.95453 310.726C-3.83922 303.106 4.28221 298.816 9.19032 289.661C13.7636 281.126 16.9505 271.422 20.7278 262.298C24.7253 252.651 30.6644 236.527 39.8844 233.902C49.821 231.075 57.4754 247.34 61.7138 256.354C67.0684 267.746 71.1365 280.002 75.9241 291.786C79.5309 300.57 84.1318 308.603 89.5734 315.618C95.2805 323.013 103.02 330.095 105.907 340.264C108.46 349.271 103.684 360.167 102.841 369.3C101.939 379.057 103.519 389.306 98.5202 397.684C88.2106 414.962 62.3365 411.757 47.5446 412.127C32.9496 412.508 21.2153 401.935 9.40474 391.877C1.60346 385.237 -6.52091 379.613 -14.519 373.426C-22.6727 367.113 -25.5042 360.464 -24.1707 348.109Z" stroke="#5ACEF2" stroke-width="2"/>
<path fill-rule="evenodd" clip-rule="evenodd" d="M-14.9798 340.074C-10.4978 319.735 3.50069 308.925 13.508 293.554C21.6961 280.97 27.8357 254.911 41.6255 251.464C57.2816 247.552 66.6541 282.08 72.0971 295.403C78.1368 310.179 88.8935 322.198 93.3667 337.84C95.7179 346.05 93.6988 353.71 92.4468 361.916C91.0743 370.927 90.0427 380.139 85.305 387.392C75.9795 401.665 57.7665 401.566 44.6497 401.958C31.0715 402.366 19.0598 392.586 8.24131 382.824C-3.23258 372.486 -19.5705 360.933 -14.9798 340.074Z" stroke="#5ACEF2" stroke-width="2"/>
<path fill-rule="evenodd" clip-rule="evenodd" d="M-7.47292 334.559C-2.42256 320.068 8.1903 308.287 16.802 297.165C23.9897 287.894 31.7221 269.229 42.6814 267.899C55.5618 266.329 63.3683 286.26 68.4364 298.48C73.4246 310.489 80.6123 323.168 83.3743 336.348C86.2548 350.077 78.5845 368.567 71.2695 378.282C63.1107 389.116 49.7625 393.119 38.3089 392.686C26.3165 392.247 15.3129 383.294 6.23054 374.007C-3.47941 364.079 -13.3463 351.381 -7.47292 334.559Z" stroke="#FF8062" stroke-width="2"/>
</svg>
