<svg aria-hidden="true" style="position: absolute; width: 0; height: 0; overflow: hidden;" version="1.1" xmlns="http://www.w3.org/2000/svg" xmlns:xlink="http://www.w3.org/1999/xlink">
<defs>
<symbol id="icon-union-right" viewBox="0 0 20 32">
<path d="M11.472 16.186l-9.999 9.999c-1.302 1.302-1.302 3.412 0 4.714s3.412 1.302 4.714 0l12.406-12.406c1.302-1.302 1.302-3.412 0-4.714-0.167-0.167-0.347-0.313-0.538-0.437l-12.365-12.365c-1.302-1.302-3.412-1.302-4.714 0s-1.302 3.412 0 4.714l10.495 10.495z"></path>
</symbol>
<symbol id="icon-union-left" viewBox="0 0 20 32">
<path d="M8.098 16.186l9.999 9.999c1.302 1.302 1.302 3.412 0 4.714s-3.412 1.302-4.714 0l-12.406-12.406c-1.302-1.302-1.302-3.412 0-4.714 0.167-0.167 0.347-0.313 0.538-0.437l12.365-12.365c1.302-1.302 3.412-1.302 4.714 0s1.302 3.412 0 4.714l-10.496 10.495z"></path>
</symbol>
</defs>
</svg>
